<svg version="1.1" id="Layer_1" xmlns="http://www.w3.org/2000/svg" xmlns:xlink="http://www.w3.org/1999/xlink" x="0px" y="0px"
	 width="100%" viewBox="0 0 942 598" enable-background="new 0 0 942 598" xml:space="preserve">
<path fill="#FEFFFE" opacity="1.000000" stroke="none" 
	d="
M589.000000,599.000000 
	C392.666656,599.000000 196.833328,599.000000 1 x.000000,599.000000 
	C1.000000,399.666656 1.000000,200.333328 1.000000,1.000000 
	C315.000000,1.000000 629.000000,1.000000 943.000000,1.000000 
	C943.000000,200.333328 943.000000,399.666656 943.000000,599.000000 
	C825.166687,599.000000 707.333313,599.000000 589.000000,599.000000 
M470.768860,98.301552 
	C464.413940,89.752487 457.835815,81.359192 451.741760,72.628075 
	C421.394440,29.148987 380.145111,5.946657 326.778534,7.380733 
	C283.079956,8.555009 247.289307,27.198740 221.025177,62.213665 
	C209.767624,77.222023 200.555618,93.792206 190.750839,109.858192 
	C136.242905,199.174088 81.699036,288.468628 27.461206,377.948547 
	C2.871809,418.515411 -0.930536,461.216064 17.075235,505.333282 
	C37.770874,556.041077 88.234390,592.409729 143.361847,592.460999 
	C358.655548,592.661133 573.949585,592.561340 789.243469,592.498413 
	C797.547852,592.496033 805.851990,591.727295 814.933533,591.620911 
	C817.423462,591.465332 819.958496,591.558289 822.396362,591.115784 
	C846.355225,586.766541 867.654785,576.744629 886.327454,561.083496 
	C935.901733,519.504822 955.034729,449.557526 921.898438,386.609283 
	C910.893372,365.703278 898.219421,345.657288 885.920837,325.454041 
	C846.153015,260.125885 806.222229,194.896942 766.317261,129.652359 
	C752.674316,107.346138 740.732971,83.710083 724.851929,63.120693 
	C689.309692,17.041080 640.967834,-0.047656 584.028137,9.544898 
	C550.601685,15.176214 523.299011,32.836575 502.391235,59.704407 
	C493.698364,70.875282 485.721466,82.601112 477.228699,93.931938 
	C475.718933,95.946251 473.273193,97.259056 470.768860,98.301552 
z"/>
<path fill="#019928" opacity="1.000000" stroke="none" 
	d="
M814.156250,591.315552 
	C805.851990,591.727295 797.547852,592.496033 789.243469,592.498413 
	C573.949585,592.561340 358.655548,592.661133 143.361847,592.460999 
	C88.234390,592.409729 37.770874,556.041077 17.075235,505.333282 
	C-0.930536,461.216064 2.871809,418.515411 27.461206,377.948547 
	C81.699036,288.468628 136.242905,199.174088 190.750839,109.858192 
	C200.555618,93.792206 209.767624,77.222023 221.025177,62.213665 
	C247.289307,27.198740 283.079956,8.555009 326.778534,7.380733 
	C380.145111,5.946657 421.394440,29.148987 451.741760,72.628075 
	C457.835815,81.359192 464.413940,89.752487 470.860168,98.865479 
	C449.251740,130.649368 427.551941,161.869339 405.658142,192.813980 
	C389.828308,170.337326 374.705780,147.750168 358.398041,126.053818 
	C344.762909,107.913139 317.425476,109.476479 304.440125,128.222412 
	C301.120331,133.014923 297.910309,137.894196 294.871948,142.869247 
	C262.564453,195.770187 230.284149,248.687759 198.032272,301.622650 
	C171.415115,345.309296 144.825867,389.013000 118.269264,432.736481 
	C111.071259,444.587463 110.866028,456.975433 117.536049,468.849518 
	C122.858871,478.325256 131.199158,485.519531 142.438644,485.873810 
	C161.075790,486.461212 179.758240,485.699463 198.418793,485.354492 
	C200.997757,485.306824 203.560715,484.393707 206.589279,483.929016 
	C251.005630,483.965149 294.963776,483.953552 339.281128,484.194122 
	C341.233124,484.736237 342.825653,485.278412 344.418671,485.279938 
	C429.231293,485.361298 514.043945,485.414734 598.856506,485.347839 
	C601.277527,485.345947 603.697449,484.014282 606.117920,483.302673 
	C605.301392,481.056641 604.918335,478.510803 603.603394,476.609497 
	C583.416016,447.421356 563.120728,418.307831 542.823181,389.196014 
	C521.191650,358.170990 499.565155,327.142303 477.798187,296.212524 
	C476.520844,294.397491 474.008392,293.451691 472.087830,291.741699 
	C473.738098,288.916870 475.327240,286.421143 477.011688,283.991486 
	C487.216217,269.271851 497.450806,254.573120 507.658813,239.855927 
	C514.830994,229.515640 521.868530,219.079697 529.186768,208.844147 
	C532.188660,204.645569 535.770813,200.861801 539.314575,197.143677 
	C544.034119,204.213211 548.382019,211.130188 553.044922,217.827835 
	C597.791748,282.101257 642.565308,346.356140 687.390564,410.574890 
	C703.507751,433.665070 719.738281,456.676727 736.056274,479.625305 
	C737.916016,482.240723 740.678406,484.214355 743.054810,486.811768 
	C743.937256,488.553894 744.707397,490.025513 745.649536,491.377197 
	C755.002380,504.794769 764.408325,518.175354 773.750549,531.600281 
	C784.797852,547.475403 795.840332,563.354370 806.785950,579.299622 
	C809.441650,583.168335 811.709839,587.303101 814.156250,591.315552 
z"/>
<path fill="#013E99" opacity="1.000000" stroke="none" 
	d="
M814.544922,591.468262 
	C811.709839,587.303101 809.441650,583.168335 806.785950,579.299622 
	C795.840332,563.354370 784.797852,547.475403 773.750549,531.600281 
	C764.408325,518.175354 755.002380,504.794769 745.649536,491.377197 
	C744.707397,490.025513 743.937256,488.553894 743.505737,486.687866 
	C762.746582,485.928497 781.575745,485.814697 800.386230,485.162659 
	C804.703003,485.013000 809.266907,483.654602 813.184814,481.754822 
	C832.113647,472.576294 835.155823,447.711548 826.464417,433.492767 
	C808.133362,403.503845 789.928955,373.437531 771.643066,343.421021 
	C737.500244,287.375244 703.370789,231.321320 669.159424,175.317444 
	C659.523254,159.543182 649.806274,143.811356 639.755005,128.300720 
	C635.412354,121.599358 629.404846,116.454758 621.102539,115.077858 
	C606.061584,112.583366 592.896851,115.363976 583.649292,128.807343 
	C581.667664,131.688049 579.469971,134.419662 577.473816,137.290909 
	C565.682007,154.251938 553.840210,171.179535 542.237915,188.269577 
	C540.571533,190.724121 540.108765,193.995819 539.088989,196.889343 
	C535.770813,200.861801 532.188660,204.645569 529.186768,208.844147 
	C521.868530,219.079697 514.830994,229.515640 507.658813,239.855927 
	C497.450806,254.573120 487.216217,269.271851 477.011688,283.991486 
	C475.327240,286.421143 473.738098,288.916870 471.784302,291.908295 
	C468.384064,295.807953 464.887421,298.889069 462.287323,302.598572 
	C423.073547,358.543945 383.931732,414.540039 344.952576,470.648926 
	C342.222015,474.579498 340.899292,479.488129 338.921906,483.941925 
	C294.963776,483.953552 251.005630,483.965149 206.681763,483.621399 
	C242.384399,431.495239 278.440186,379.715637 314.525085,327.956299 
	C343.279205,286.712097 372.111542,245.522308 400.761444,204.205902 
	C403.047638,200.908997 404.182312,196.813614 405.852142,193.089294 
	C427.551941,161.869339 449.251740,130.649368 471.105591,99.162598 
	C473.273193,97.259056 475.718933,95.946251 477.228699,93.931938 
	C485.721466,82.601112 493.698364,70.875282 502.391235,59.704407 
	C523.299011,32.836575 550.601685,15.176214 584.028137,9.544898 
	C640.967834,-0.047656 689.309692,17.041080 724.851929,63.120693 
	C740.732971,83.710083 752.674316,107.346138 766.317261,129.652359 
	C806.222229,194.896942 846.153015,260.125885 885.920837,325.454041 
	C898.219421,345.657288 910.893372,365.703278 921.898438,386.609283 
	C955.034729,449.557526 935.901733,519.504822 886.327454,561.083496 
	C867.654785,576.744629 846.355225,586.766541 822.396362,591.115784 
	C819.958496,591.558289 817.423462,591.465332 814.544922,591.468262 
z"/>
<path fill="#FEFEFE" opacity="1.000000" stroke="none" 
	d="
M405.658142,192.813995 
	C404.182312,196.813614 403.047638,200.908997 400.761444,204.205902 
	C372.111542,245.522308 343.279205,286.712097 314.525085,327.956299 
	C278.440186,379.715637 242.384399,431.495239 206.223557,483.573639 
	C203.560715,484.393707 200.997757,485.306824 198.418793,485.354492 
	C179.758240,485.699463 161.075790,486.461212 142.438644,485.873810 
	C131.199158,485.519531 122.858871,478.325256 117.536049,468.849518 
	C110.866028,456.975433 111.071259,444.587463 118.269264,432.736481 
	C144.825867,389.013000 171.415115,345.309296 198.032272,301.622650 
	C230.284149,248.687759 262.564453,195.770187 294.871948,142.869247 
	C297.910309,137.894196 301.120331,133.014923 304.440125,128.222412 
	C317.425476,109.476479 344.762909,107.913139 358.398041,126.053818 
	C374.705780,147.750168 389.828308,170.337326 405.658142,192.813995 
z"/>
<path fill="#FEFEFE" opacity="1.000000" stroke="none" 
	d="
M539.314575,197.143677 
	C540.108765,193.995819 540.571533,190.724121 542.237915,188.269577 
	C553.840210,171.179535 565.682007,154.251938 577.473816,137.290909 
	C579.469971,134.419662 581.667664,131.688049 583.649292,128.807343 
	C592.896851,115.363976 606.061584,112.583366 621.102539,115.077858 
	C629.404846,116.454758 635.412354,121.599358 639.755005,128.300720 
	C649.806274,143.811356 659.523254,159.543182 669.159424,175.317444 
	C703.370789,231.321320 737.500244,287.375244 771.643066,343.421021 
	C789.928955,373.437531 808.133362,403.503845 826.464417,433.492767 
	C835.155823,447.711548 832.113647,472.576294 813.184814,481.754822 
	C809.266907,483.654602 804.703003,485.013000 800.386230,485.162659 
	C781.575745,485.814697 762.746582,485.928497 743.473267,486.361664 
	C740.678406,484.214355 737.916016,482.240723 736.056274,479.625305 
	C719.738281,456.676727 703.507751,433.665070 687.390564,410.574890 
	C642.565308,346.356140 597.791748,282.101257 553.044922,217.827835 
	C548.382019,211.130188 544.034119,204.213211 539.314575,197.143677 
z"/>
<path fill="#FDFEFE" opacity="1.000000" stroke="none" 
	d="
M339.281128,484.194122 
	C340.899292,479.488129 342.222015,474.579498 344.952576,470.648926 
	C383.931732,414.540039 423.073547,358.543945 462.287323,302.598572 
	C464.887421,298.889069 468.384064,295.807953 471.767181,292.267944 
	C474.008392,293.451691 476.520844,294.397491 477.798187,296.212524 
	C499.565155,327.142303 521.191650,358.170990 542.823181,389.196014 
	C563.120728,418.307831 583.416016,447.421356 603.603394,476.609497 
	C604.918335,478.510803 605.301392,481.056641 606.117920,483.302673 
	C603.697449,484.014282 601.277527,485.345947 598.856506,485.347839 
	C514.043945,485.414734 429.231293,485.361298 344.418671,485.279938 
	C342.825653,485.278412 341.233124,484.736237 339.281128,484.194122 
z"/>
</svg>